<svg version="1.1" xmlns="http://www.w3.org/2000/svg" viewBox="0 0 1457.3437825046803 826.5970824727196" width="2914.6875650093607" height="1653.1941649454393">
  <!-- svg-source:excalidraw -->
  
  <defs>
    <style class="style-fonts">
      @font-face {
        font-family: "Virgil";
        src: url("https://excalidraw.com/Virgil.woff2");
      }
      @font-face {
        font-family: "Cascadia";
        src: url("https://excalidraw.com/Cascadia.woff2");
      }
    </style>
    
  </defs>
  <rect x="0" y="0" width="1457.3437825046803" height="826.5970824727196" fill="#ffffff"></rect><g stroke-linecap="round"><g transform="translate(349.76505901839914 156.32803668686574) rotate(0 0.6764458530526554 259.6994285534741)"><path d="M0.96 -0.15 C1.06 86.46, 0.39 433.2, 0.38 519.55" stroke="#1e1e1e" stroke-width="1.5" fill="none" stroke-dasharray="8 9"></path></g></g><mask></mask><g stroke-linecap="round"><g transform="translate(783.4642777683991 150.62491168686574) rotate(0 0.061915070995837596 261.9568129998107)"><path d="M-0.97 -0.15 C-0.76 87.24, 0.79 436.53, 1.09 524.06" stroke="#1e1e1e" stroke-width="1.5" fill="none" stroke-dasharray="8 9"></path></g></g><mask></mask><g stroke-linecap="round"><g transform="translate(1279.2025590183991 145.32413043686574) rotate(0 0.5967723483908003 258.0591641850831)"><path d="M0.42 0.77 C0.7 86.67, 0.84 429.66, 0.74 515.35" stroke="#1e1e1e" stroke-width="1.5" fill="none" stroke-dasharray="8 9"></path></g></g><mask></mask><g stroke-linecap="round" transform="translate(284.04240276839914 73.99991168686574) rotate(0 67.029296875 37.3984375)"><path d="M18.7 0 M18.7 0 C38.51 0.92, 57.07 1.3, 115.36 0 M18.7 0 C49.87 -0.44, 80.01 0.64, 115.36 0 M115.36 0 C126.07 -0.75, 134.66 5.55, 134.06 18.7 M115.36 0 C129.2 -0.64, 134.7 7.07, 134.06 18.7 M134.06 18.7 C134.98 26.76, 133.02 38.16, 134.06 56.1 M134.06 18.7 C133.26 30.25, 133.96 39.99, 134.06 56.1 M134.06 56.1 C133.63 70.17, 128.9 73.63, 115.36 74.8 M134.06 56.1 C133.74 67.56, 128.58 74.04, 115.36 74.8 M115.36 74.8 C76.56 72.43, 38 73.8, 18.7 74.8 M115.36 74.8 C80.08 74.37, 45.92 74.66, 18.7 74.8 M18.7 74.8 C5.07 72.83, -1.41 66.98, 0 56.1 M18.7 74.8 C5.86 72.93, -1.4 66.92, 0 56.1 M0 56.1 C-0.17 43.22, -0.95 31.58, 0 18.7 M0 56.1 C0.53 48.01, 0.64 40.8, 0 18.7 M0 18.7 C1.45 5.42, 6.46 -1.36, 18.7 0 M0 18.7 C0.15 4.36, 4.32 1.03, 18.7 0" stroke="#1e1e1e" stroke-width="1" fill="none"></path></g><g transform="translate(324.02172710921946 98.89834918686574) rotate(0 27.049972534179688 12.5)"><text x="27.049972534179688" y="0" font-family="Virgil, Segoe UI Emoji" font-size="20px" fill="#1e1e1e" text-anchor="middle" style="white-space: pre;" direction="ltr" dominant-baseline="text-before-edge">Client</text></g><g stroke-linecap="round" transform="translate(715.4935746433991 74.30459918686574) rotate(0 67.029296875 37.3984375)"><path d="M18.7 0 M18.7 0 C45.94 -1.38, 74.03 -1.07, 115.36 0 M18.7 0 C55.93 -0.84, 94.16 -0.24, 115.36 0 M115.36 0 C129.25 0.71, 132.39 4.39, 134.06 18.7 M115.36 0 C127.87 -1.91, 135.1 6.24, 134.06 18.7 M134.06 18.7 C132.19 31.49, 134.94 39.71, 134.06 56.1 M134.06 18.7 C134.63 31.18, 134.84 42.92, 134.06 56.1 M134.06 56.1 C132.78 68.31, 126.54 74.23, 115.36 74.8 M134.06 56.1 C135.43 69.9, 126.47 74.28, 115.36 74.8 M115.36 74.8 C88.65 76.92, 66 75.48, 18.7 74.8 M115.36 74.8 C76.52 74.8, 38.69 73.8, 18.7 74.8 M18.7 74.8 C7.19 75.74, -1.66 69.67, 0 56.1 M18.7 74.8 C5.74 74.41, 1.95 66.27, 0 56.1 M0 56.1 C1.29 42.27, -0.33 28.99, 0 18.7 M0 56.1 C-0.76 44.92, -0.67 35.22, 0 18.7 M0 18.7 C0.48 4.67, 7.77 0.24, 18.7 0 M0 18.7 C0.21 6.38, 8.41 -0.9, 18.7 0" stroke="#1e1e1e" stroke-width="1" fill="none"></path></g><g transform="translate(742.8628983738679 99.20303668686574) rotate(0 39.65997314453125 12.5)"><text x="39.65997314453125" y="0" font-family="Virgil, Segoe UI Emoji" font-size="20px" fill="#1e1e1e" text-anchor="middle" style="white-space: pre;" direction="ltr" dominant-baseline="text-before-edge">Backend</text></g><g stroke-linecap="round" transform="translate(1211.0990433933991 64.58584918686574) rotate(0 67.029296875 37.3984375)"><path d="M18.7 0 M18.7 0 C52.53 -2.06, 83.66 -0.48, 115.36 0 M18.7 0 C46.23 -0.45, 73.64 -1.69, 115.36 0 M115.36 0 C128.54 -1.85, 132.13 5.02, 134.06 18.7 M115.36 0 C129.51 0.27, 134.56 6.65, 134.06 18.7 M134.06 18.7 C133.49 30.89, 134.54 44.23, 134.06 56.1 M134.06 18.7 C134.07 30.65, 134.15 40.97, 134.06 56.1 M134.06 56.1 C134.19 70.27, 127.03 74.24, 115.36 74.8 M134.06 56.1 C135.87 70.77, 126.51 76.25, 115.36 74.8 M115.36 74.8 C87.06 76.34, 57.99 75.4, 18.7 74.8 M115.36 74.8 C83.3 76.04, 48.75 75.93, 18.7 74.8 M18.7 74.8 C7.67 76.67, 1.46 66.91, 0 56.1 M18.7 74.8 C5.99 75.36, 1.26 67.12, 0 56.1 M0 56.1 C0.39 49.03, -1.14 41.09, 0 18.7 M0 56.1 C-1.04 47.18, 0.29 36.64, 0 18.7 M0 18.7 C-1.24 8.09, 4.35 -0.88, 18.7 0 M0 18.7 C-1.27 4.71, 5.95 -0.78, 18.7 0" stroke="#1e1e1e" stroke-width="1" fill="none"></path></g><g transform="translate(1264.2283463719148 89.48428668686574) rotate(0 13.899993896484375 12.5)"><text x="13.899993896484375" y="0" font-family="Virgil, Segoe UI Emoji" font-size="20px" fill="#1e1e1e" text-anchor="middle" style="white-space: pre;" direction="ltr" dominant-baseline="text-before-edge">R2</text></g><g stroke-linecap="round"><g transform="translate(1142.7650590183991 144.5513361459216) rotate(0 -0.6839147227357216 263.36714690149734)"><path d="M0.13 0.66 C-0.29 88.15, -1.29 438.63, -1.5 526.07" stroke="#1e1e1e" stroke-width="1.5" fill="none" stroke-dasharray="8 9"></path></g></g><mask></mask><g stroke-linecap="round" transform="translate(1074.6615433933991 63.813054895921596) rotate(0 67.029296875 37.3984375)"><path d="M18.7 0 M18.7 0 C49.97 -0.39, 78.77 1.51, 115.36 0 M18.7 0 C51.33 -0.47, 83.54 0.25, 115.36 0 M115.36 0 C129.62 1.67, 133.76 6.7, 134.06 18.7 M115.36 0 C128.32 2.13, 136.3 7.56, 134.06 18.7 M134.06 18.7 C132.52 33.3, 132.6 43.26, 134.06 56.1 M134.06 18.7 C134.43 28.97, 134.55 39.71, 134.06 56.1 M134.06 56.1 C133.83 67.56, 126.73 73.54, 115.36 74.8 M134.06 56.1 C132.42 69.9, 127.38 73.73, 115.36 74.8 M115.36 74.8 C93.25 76.32, 72.12 73.7, 18.7 74.8 M115.36 74.8 C95.37 74.45, 74.28 74.05, 18.7 74.8 M18.7 74.8 C6.34 74.53, -1.82 67.02, 0 56.1 M18.7 74.8 C6.85 75.59, 2.06 69.47, 0 56.1 M0 56.1 C-0.63 48.73, -1.81 39.31, 0 18.7 M0 56.1 C0.01 48.3, 0.54 38.82, 0 18.7 M0 18.7 C-1.9 7.81, 4.96 -1.04, 18.7 0 M0 18.7 C-0.28 6.36, 4.51 -1.12, 18.7 0" stroke="#1e1e1e" stroke-width="1" fill="none"></path></g><g transform="translate(1102.880880856778 88.7114923959216) rotate(0 38.809959411621094 12.5)"><text x="38.809959411621094" y="0" font-family="Virgil, Segoe UI Emoji" font-size="20px" fill="#1e1e1e" text-anchor="middle" style="white-space: pre;" direction="ltr" dominant-baseline="text-before-edge">Dropbox</text></g><g stroke-linecap="round"><g transform="translate(352.24162151839914 191.86709918686574) rotate(0 213.85190904268063 0.010626800379611723)"><path d="M0.22 0.02 C71.76 0.36, 357.4 1.14, 428.83 1.03 M-1.13 -1.02 C70.38 -0.91, 356.77 -0.77, 428.37 -0.56" stroke="#1e1e1e" stroke-width="1" fill="none"></path></g><g transform="translate(352.24162151839914 191.86709918686574) rotate(0 213.85190904268063 0.010626800379611723)"><path d="M400.2 11.2 C409.39 8.4, 413.94 6.19, 429.63 -0.16 M400.51 10.29 C411.29 5.41, 420.93 2.38, 428.58 0.25" stroke="#1e1e1e" stroke-width="1" fill="none"></path></g><g transform="translate(352.24162151839914 191.86709918686574) rotate(0 213.85190904268063 0.010626800379611723)"><path d="M400.23 -9.32 C409.24 -6.71, 413.79 -3.53, 429.63 -0.16 M400.54 -10.24 C411.36 -7.31, 420.99 -2.53, 428.58 0.25" stroke="#1e1e1e" stroke-width="1" fill="none"></path></g></g><mask></mask><g stroke-linecap="round"><g transform="translate(785.9525590183991 219.03506793686574) rotate(0 176.27248697362836 -0.02482980899503673)"><path d="M0.17 1.07 C59.15 1.06, 294.83 -1.08, 353.74 -1.12 M-1.2 0.59 C57.66 0.77, 293.9 0.11, 352.94 -0.17" stroke="#1e1e1e" stroke-width="1" fill="none"></path></g><g transform="translate(785.9525590183991 219.03506793686574) rotate(0 176.27248697362836 -0.02482980899503673)"><path d="M30.08 -8.92 C18.26 -5.99, 13.39 -4.67, 1.01 2.24 M29.1 -9.97 C18.81 -6.99, 10.79 -2.88, -0.65 0.15" stroke="#1e1e1e" stroke-width="1" fill="none"></path></g><g transform="translate(785.9525590183991 219.03506793686574) rotate(0 176.27248697362836 -0.02482980899503673)"><path d="M30.21 11.6 C18.53 8.64, 13.62 4.07, 1.01 2.24 M29.23 10.55 C19 7.29, 10.94 5.16, -0.65 0.15" stroke="#1e1e1e" stroke-width="1" fill="none"></path></g><g transform="translate(785.9525590183991 219.03506793686574) rotate(0 176.27248697362836 -0.02482980899503673)"><path d="M326.57 10.64 C331.09 7.52, 342.37 2.87, 353.78 1 M325.59 9.59 C332.52 5.95, 341.61 3.73, 352.12 -1.09" stroke="#1e1e1e" stroke-width="1" fill="none"></path></g><g transform="translate(785.9525590183991 219.03506793686574) rotate(0 176.27248697362836 -0.02482980899503673)"><path d="M326.5 -9.88 C330.86 -7.11, 342.16 -5.87, 353.78 1 M325.52 -10.93 C332.37 -8.33, 341.49 -4.31, 352.12 -1.09" stroke="#1e1e1e" stroke-width="1" fill="none"></path></g></g><mask></mask><g stroke-linecap="round"><g transform="translate(786.1595902683991 258.80850543686574) rotate(0 245.24973892755804 0.0342730588372433)"><path d="M-1.01 0.42 C80.97 0.77, 409.46 0.76, 491.51 0.87 M0.66 -0.4 C82.62 -0.28, 409.46 -0.75, 491.19 -0.8" stroke="#1e1e1e" stroke-width="1" fill="none"></path></g><g transform="translate(786.1595902683991 258.80850543686574) rotate(0 245.24973892755804 0.0342730588372433)"><path d="M27.89 -7.82 C21.02 -5.73, 13.89 -3.5, -2.86 2.2 M26.96 -10.61 C15.38 -5.04, 3.97 -1.26, -0.76 0.73" stroke="#1e1e1e" stroke-width="1" fill="none"></path></g><g transform="translate(786.1595902683991 258.80850543686574) rotate(0 245.24973892755804 0.0342730588372433)"><path d="M27.87 12.7 C21.21 9.33, 14.08 6.1, -2.86 2.2 M26.94 9.92 C15.29 7.33, 3.89 2.95, -0.76 0.73" stroke="#1e1e1e" stroke-width="1" fill="none"></path></g><g transform="translate(786.1595902683991 258.80850543686574) rotate(0 245.24973892755804 0.0342730588372433)"><path d="M463.72 11.48 C472.06 8.58, 479.94 5.35, 489.34 0.98 M462.78 8.69 C473.52 6.58, 484.52 2.21, 491.44 -0.49" stroke="#1e1e1e" stroke-width="1" fill="none"></path></g><g transform="translate(786.1595902683991 258.80850543686574) rotate(0 245.24973892755804 0.0342730588372433)"><path d="M463.69 -9.04 C471.84 -6.47, 479.73 -4.24, 489.34 0.98 M462.76 -11.83 C473.59 -5.79, 484.59 -2.01, 491.44 -0.49" stroke="#1e1e1e" stroke-width="1" fill="none"></path></g></g><mask></mask><g transform="translate(429.21037151839914 160.94913043686574) rotate(0 95.20991516113281 12.5)"><text x="0" y="0" font-family="Virgil, Segoe UI Emoji" font-size="20px" fill="#1e1e1e" text-anchor="start" style="white-space: pre;" direction="ltr" dominant-baseline="text-before-edge">Upload file request</text></g><g transform="translate(838.5775590183991 189.53116168686574) rotate(0 120.46989440917969 12.5)"><text x="0" y="0" font-family="Virgil, Segoe UI Emoji" font-size="20px" fill="#1e1e1e" text-anchor="start" style="white-space: pre;" direction="ltr" dominant-baseline="text-before-edge">Generate pre-signed url </text></g><g transform="translate(840.7053208592195 229.53506793686574) rotate(0 120.46989440917969 12.5)"><text x="0" y="0" font-family="Virgil, Segoe UI Emoji" font-size="20px" fill="#1e1e1e" text-anchor="start" style="white-space: pre;" direction="ltr" dominant-baseline="text-before-edge">Generate pre-signed url </text></g><g stroke-linecap="round"><g transform="translate(782.5033402683991 295.02725543686574) rotate(0 -215.84731631180273 0.22496752582048885)"><path d="M-0.64 0.92 C-72.54 0.91, -360.21 -0.51, -432.01 -0.47 M1.23 0.36 C-70.77 0.54, -360.74 0.98, -432.92 0.82" stroke="#1e1e1e" stroke-width="1" fill="none"></path></g><g transform="translate(782.5033402683991 295.02725543686574) rotate(0 -215.84731631180273 0.22496752582048885)"><path d="M-403.19 -9.32 C-412.58 -5.91, -416.91 -5.75, -432.53 1.36 M-405.48 -9.6 C-411.45 -7.68, -419.5 -4.84, -432.43 0.04" stroke="#1e1e1e" stroke-width="1" fill="none"></path></g><g transform="translate(782.5033402683991 295.02725543686574) rotate(0 -215.84731631180273 0.22496752582048885)"><path d="M-403.19 11.2 C-412.52 9.49, -416.85 4.53, -432.53 1.36 M-405.48 10.92 C-411.4 7.65, -419.45 5.29, -432.43 0.04" stroke="#1e1e1e" stroke-width="1" fill="none"></path></g></g><mask></mask><g transform="translate(432.95748760726633 265.19131793686574) rotate(0 144.9898681640625 12.5)"><text x="0" y="0" font-family="Virgil, Segoe UI Emoji" font-size="20px" fill="#1e1e1e" text-anchor="start" style="white-space: pre;" direction="ltr" dominant-baseline="text-before-edge">Respond with pre-signed URLs</text></g><g stroke-linecap="round"><g transform="translate(350.58927776839914 439.87491168686574) rotate(0 393.83491567187014 -0.2615017814339353)"><path d="M-1.06 0.2 C130.42 0.5, 657.17 0.71, 788.73 0.66 M0.58 -0.75 C131.94 -0.69, 656.75 -1.44, 787.89 -1.11" stroke="#1e1e1e" stroke-width="1" fill="none"></path></g><g transform="translate(350.58927776839914 439.87491168686574) rotate(0 393.83491567187014 -0.2615017814339353)"><path d="M760.02 9.48 C768.97 6.07, 775.83 4.87, 788.39 -2.1 M760.45 8.82 C769.35 4.47, 781.43 0.75, 788.38 -0.31" stroke="#1e1e1e" stroke-width="1" fill="none"></path></g><g transform="translate(350.58927776839914 439.87491168686574) rotate(0 393.83491567187014 -0.2615017814339353)"><path d="M760.03 -11.04 C768.78 -8.58, 775.64 -3.9, 788.39 -2.1 M760.45 -11.7 C769.42 -8.29, 781.5 -4.27, 788.38 -0.31" stroke="#1e1e1e" stroke-width="1" fill="none"></path></g></g><mask></mask><g stroke-linecap="round"><g transform="translate(350.52287151839914 322.43350543686574) rotate(0 -44.48585622977353 29.822539424352158)"><path d="M1.12 -0.81 C-12.07 -0.97, -64.57 -11.24, -78.36 -1.1 C-92.15 9.04, -94.48 49.9, -81.62 60.03 C-68.76 70.17, -14.33 59.66, -1.21 59.71 M0.25 1.38 C-12.63 1.33, -62.8 -10.06, -76.05 -0.14 C-89.3 9.78, -91.86 50.85, -79.25 60.9 C-66.65 70.96, -13.46 60.28, -0.42 60.2" stroke="#1e1e1e" stroke-width="1" fill="none"></path></g><g transform="translate(350.52287151839914 322.43350543686574) rotate(0 -44.48585622977353 29.822539424352158)"><path d="M-28.77 72 C-19.3 66.55, -8.95 65.11, -2.37 59.11 M-28.4 72.52 C-20.27 70.61, -12.79 65.86, 0.44 60.65" stroke="#1e1e1e" stroke-width="1" fill="none"></path></g><g transform="translate(350.52287151839914 322.43350543686574) rotate(0 -44.48585622977353 29.822539424352158)"><path d="M-30.86 51.59 C-20.64 53.63, -9.53 59.7, -2.37 59.11 M-30.48 52.1 C-21.66 55.38, -13.64 55.84, 0.44 60.65" stroke="#1e1e1e" stroke-width="1" fill="none"></path></g></g><mask></mask><g transform="translate(59.30412151839914 342.16788043686574) rotate(0 94.42992401123047 12.5)"><text x="0" y="0" font-family="Virgil, Segoe UI Emoji" font-size="20px" fill="#1e1e1e" text-anchor="start" style="white-space: pre;" direction="ltr" dominant-baseline="text-before-edge">Generate thumbnail</text></g><g transform="translate(634.8705277683991 407.2992285440282) rotate(0 227.88980102539062 12.5)"><text x="0" y="0" font-family="Virgil, Segoe UI Emoji" font-size="20px" fill="#1e1e1e" text-anchor="start" style="white-space: pre;" direction="ltr" dominant-baseline="text-before-edge">Directly upload thumbnail using pre-signed URL</text></g><g stroke-linecap="round"><g transform="translate(357.58103228305526 498.1123924355329) rotate(0 458.0876477374237 0.33650462619959853)"><path d="M-1.13 -0.77 C151.73 -0.68, 764.33 0.74, 917.31 0.95 M0.48 1.44 C153.14 1.16, 763.08 -0.16, 916.18 -0.68" stroke="#1e1e1e" stroke-width="1" fill="none"></path></g><g transform="translate(357.58103228305526 498.1123924355329) rotate(0 458.0876477374237 0.33650462619959853)"><path d="M886.74 9.1 C898.27 5.17, 906.17 1.85, 918.02 0.93 M887.09 10.29 C897.56 6.69, 906.97 2.52, 916.87 0.31" stroke="#1e1e1e" stroke-width="1" fill="none"></path></g><g transform="translate(357.58103228305526 498.1123924355329) rotate(0 458.0876477374237 0.33650462619959853)"><path d="M886.68 -11.42 C898.31 -9, 906.22 -5.98, 918.02 0.93 M887.03 -10.23 C897.39 -6.65, 906.82 -3.63, 916.87 0.31" stroke="#1e1e1e" stroke-width="1" fill="none"></path></g></g><mask></mask><g transform="translate(641.8622822830554 465.5367092926954) rotate(0 237.39978027343756 12.5)"><text x="0" y="0" font-family="Virgil, Segoe UI Emoji" font-size="20px" fill="#1e1e1e" text-anchor="start" style="white-space: pre;" direction="ltr" dominant-baseline="text-before-edge">Directly upload original file using pre-signed URL</text></g><g stroke-linecap="round"><g transform="translate(352.0647417778123 588.249895708472) rotate(0 215.8502702773162 -0.07841418296379743)"><path d="M-0.88 0.93 C71.31 1.22, 360.36 0.93, 432.58 0.6 M0.86 0.37 C72.99 0.4, 360.06 -1.1, 431.91 -1.2" stroke="#1e1e1e" stroke-width="1" fill="none"></path></g><g transform="translate(352.0647417778123 588.249895708472) rotate(0 215.8502702773162 -0.07841418296379743)"><path d="M405.3 10.02 C411.96 7.45, 416.34 4.31, 431.08 0.27 M403.67 9.33 C414.05 4.44, 426.63 0.3, 432.68 -0.74" stroke="#1e1e1e" stroke-width="1" fill="none"></path></g><g transform="translate(352.0647417778123 588.249895708472) rotate(0 215.8502702773162 -0.07841418296379743)"><path d="M405.23 -10.5 C411.71 -7.89, 416.11 -5.85, 431.08 0.27 M403.6 -11.19 C414.15 -7.99, 426.75 -4.04, 432.68 -0.74" stroke="#1e1e1e" stroke-width="1" fill="none"></path></g></g><mask></mask><g transform="translate(432.6390180106273 557.8246376939394) rotate(0 126.5898666381836 12.5)"><text x="0" y="0" font-family="Virgil, Segoe UI Emoji" font-size="20px" fill="#1e1e1e" text-anchor="start" style="white-space: pre;" direction="ltr" dominant-baseline="text-before-edge">Notify successful uploads</text></g><g stroke-linecap="round"><g transform="translate(784.4657887335893 628.2082430568228) rotate(0 -216.99629686799608 -0.8021938398875363)"><path d="M-0.5 -0.05 C-73.08 0.14, -362.94 0.2, -435.44 0.26 M1.44 -1.12 C-70.75 -1.23, -360.05 -2.21, -433.05 -1.73" stroke="#1e1e1e" stroke-width="1" fill="none"></path></g><g transform="translate(784.4657887335893 628.2082430568228) rotate(0 -216.99629686799608 -0.8021938398875363)"><path d="M-404.95 -13.04 C-413.12 -10.07, -421.69 -4.24, -433.24 -2.39 M-405.25 -11.2 C-412.38 -8.49, -421.99 -6.44, -432.62 -1.5" stroke="#1e1e1e" stroke-width="1" fill="none"></path></g><g transform="translate(784.4657887335893 628.2082430568228) rotate(0 -216.99629686799608 -0.8021938398875363)"><path d="M-404.93 7.48 C-412.96 4.19, -421.53 3.74, -433.24 -2.39 M-405.23 9.32 C-412.23 5.97, -421.86 1.97, -432.62 -1.5" stroke="#1e1e1e" stroke-width="1" fill="none"></path></g></g><mask></mask><g transform="translate(434.36761485482793 597.3610412696462) rotate(0 57.01995086669922 12.5)"><text x="0" y="0" font-family="Virgil, Segoe UI Emoji" font-size="20px" fill="#1e1e1e" text-anchor="start" style="white-space: pre;" direction="ltr" dominant-baseline="text-before-edge">Acknowledge</text></g><g stroke-linecap="round" transform="translate(10 10) rotate(0 718.6718912523402 403.2985412363598)"><path d="M32 0 M32 0 C476.07 2.07, 921.2 1.53, 1405.34 0 M32 0 C397.47 2.58, 763.31 2.79, 1405.34 0 M1405.34 0 C1426.56 1.15, 1437.42 8.74, 1437.34 32 M1405.34 0 C1428.14 0.43, 1437.95 12.22, 1437.34 32 M1437.34 32 C1435.39 295.04, 1434.55 558.37, 1437.34 774.6 M1437.34 32 C1438.19 306.29, 1438.35 580.52, 1437.34 774.6 M1437.34 774.6 C1438.55 796.79, 1425.5 808.23, 1405.34 806.6 M1437.34 774.6 C1436.6 796.64, 1425.16 804.81, 1405.34 806.6 M1405.34 806.6 C922.81 804.89, 441.21 805.21, 32 806.6 M1405.34 806.6 C916.43 803.88, 427.93 803.92, 32 806.6 M32 806.6 C11.22 807.9, -0.02 797.26, 0 774.6 M32 806.6 C12.3 806.52, 1.86 795.96, 0 774.6 M0 774.6 C-1.31 482.3, -1.48 190.11, 0 32 M0 774.6 C0 535.85, 0.21 296.25, 0 32 M0 32 C-0.35 9.64, 12.4 0.1, 32 0 M0 32 C-1.36 12.96, 11.31 -1.35, 32 0" stroke="#1e1e1e" stroke-width="1" fill="none"></path></g><g transform="translate(590.5557012323703 746.5922207529131) rotate(0 196.87500000000006 16.799999999999955)"><text x="0" y="0" font-family="Cascadia, Segoe UI Emoji" font-size="28px" fill="#1e1e1e" text-anchor="start" style="white-space: pre;" direction="ltr" dominant-baseline="text-before-edge">User Flow: Upload a File</text></g></svg>