<svg version="1.1" xmlns="http://www.w3.org/2000/svg" viewBox="0 0 1457.3437825046803 826.5970824727196" width="2914.6875650093607" height="1653.1941649454393">
  <!-- svg-source:excalidraw -->
  
  <defs>
    <style class="style-fonts">
      @font-face {
        font-family: "Virgil";
        src: url("https://excalidraw.com/Virgil.woff2");
      }
      @font-face {
        font-family: "Cascadia";
        src: url("https://excalidraw.com/Cascadia.woff2");
      }
    </style>
    
  </defs>
  <rect x="0" y="0" width="1457.3437825046803" height="826.5970824727196" fill="#ffffff"></rect><g stroke-linecap="round"><g transform="translate(349.76505901839914 156.32803668686574) rotate(0 0.4353432817794669 259.4610690749854)"><path d="M0.51 1.05 C0.66 87.49, 0.33 431.43, 0.32 517.87" stroke="#1e1e1e" stroke-width="1.5" fill="none" stroke-dasharray="8 9"></path></g></g><mask></mask><g stroke-linecap="round"><g transform="translate(783.4642777683991 150.62491168686574) rotate(0 0.80175673445558 262.3159040280093)"><path d="M0.32 -0.91 C0.45 86.51, 1.33 438.01, 1.28 525.54" stroke="#1e1e1e" stroke-width="1.5" fill="none" stroke-dasharray="8 9"></path></g></g><mask></mask><g stroke-linecap="round"><g transform="translate(1279.2025590183991 145.32413043686574) rotate(0 -0.17092959098511074 257.8759859267684)"><path d="M0.46 0.89 C0.27 86.86, -0.76 429.21, -0.8 514.86" stroke="#1e1e1e" stroke-width="1.5" fill="none" stroke-dasharray="8 9"></path></g></g><mask></mask><g stroke-linecap="round" transform="translate(284.2186849120927 74.17619383055944) rotate(0 67.029296875 37.3984375)"><path d="M18.7 0 M18.7 0 C50.78 0.95, 83.32 1.98, 115.36 0 M18.7 0 C43.51 1.79, 67.17 0.57, 115.36 0 M115.36 0 C129.34 0.91, 133.46 5.87, 134.06 18.7 M115.36 0 C126 0.32, 134.92 8.03, 134.06 18.7 M134.06 18.7 C133.69 29.15, 135.68 34.81, 134.06 56.1 M134.06 18.7 C134.51 32.93, 133.41 47.62, 134.06 56.1 M134.06 56.1 C135.63 68.51, 127.59 76.74, 115.36 74.8 M134.06 56.1 C132.38 67.79, 129.59 76.59, 115.36 74.8 M115.36 74.8 C82.37 75.96, 52.42 73.2, 18.7 74.8 M115.36 74.8 C84.5 74.68, 54.18 74.52, 18.7 74.8 M18.7 74.8 C7.57 76.5, 1.57 67.66, 0 56.1 M18.7 74.8 C6.12 72.51, -0.61 70.36, 0 56.1 M0 56.1 C-0.1 45.69, -1.3 33.39, 0 18.7 M0 56.1 C0.32 42.42, -0.8 28.06, 0 18.7 M0 18.7 C1.48 6.67, 5.81 0.16, 18.7 0 M0 18.7 C0.06 4.5, 8.04 1.35, 18.7 0" stroke="#1e1e1e" stroke-width="1" fill="none"></path></g><g transform="translate(324.19800925291315 99.07463133055944) rotate(0 27.049972534179688 12.5)"><text x="27.049972534179688" y="0" font-family="Virgil, Segoe UI Emoji" font-size="20px" fill="#1e1e1e" text-anchor="middle" style="white-space: pre;" direction="ltr" dominant-baseline="text-before-edge">Client</text></g><g stroke-linecap="round" transform="translate(715.4935746433991 74.30459918686574) rotate(0 67.029296875 37.3984375)"><path d="M18.7 0 M18.7 0 C48.2 0.84, 77.82 0.53, 115.36 0 M18.7 0 C57.17 0.76, 93.83 0.13, 115.36 0 M115.36 0 C126.24 0.28, 134.81 7.79, 134.06 18.7 M115.36 0 C126.28 0.73, 135.19 5.67, 134.06 18.7 M134.06 18.7 C135.98 35.05, 133.5 47.86, 134.06 56.1 M134.06 18.7 C134.47 29.67, 133.57 41.66, 134.06 56.1 M134.06 56.1 C132.6 67.89, 129.36 76.36, 115.36 74.8 M134.06 56.1 C134.76 70.07, 128.3 73.59, 115.36 74.8 M115.36 74.8 C82.01 72.46, 47.09 73.36, 18.7 74.8 M115.36 74.8 C83.86 75.81, 51.8 74.51, 18.7 74.8 M18.7 74.8 C6.14 72.81, -0.53 70.13, 0 56.1 M18.7 74.8 C6.01 73.54, -0.65 68.21, 0 56.1 M0 56.1 C1.52 45.99, 1.94 33.38, 0 18.7 M0 56.1 C0.91 45.63, -0.05 34.8, 0 18.7 M0 18.7 C0.05 4.73, 7.8 1.17, 18.7 0 M0 18.7 C1.65 7.11, 6.34 1.3, 18.7 0" stroke="#1e1e1e" stroke-width="1" fill="none"></path></g><g transform="translate(742.8628983738679 99.20303668686574) rotate(0 39.65997314453125 12.5)"><text x="39.65997314453125" y="0" font-family="Virgil, Segoe UI Emoji" font-size="20px" fill="#1e1e1e" text-anchor="middle" style="white-space: pre;" direction="ltr" dominant-baseline="text-before-edge">Backend</text></g><g stroke-linecap="round" transform="translate(1211.0990433933991 64.58584918686574) rotate(0 67.029296875 37.3984375)"><path d="M18.7 0 M18.7 0 C56.68 -0.53, 90.41 0.94, 115.36 0 M18.7 0 C51.29 0.31, 85.85 0.96, 115.36 0 M115.36 0 C126.48 0.63, 135.04 5.74, 134.06 18.7 M115.36 0 C129.83 1.72, 132.55 8.12, 134.06 18.7 M134.06 18.7 C133.78 31.43, 134.59 49.73, 134.06 56.1 M134.06 18.7 C133.29 29.48, 134.78 41.71, 134.06 56.1 M134.06 56.1 C134.67 69.88, 128.24 73.75, 115.36 74.8 M134.06 56.1 C135.17 69.66, 125.76 75.17, 115.36 74.8 M115.36 74.8 C94.09 74.47, 71.85 75.86, 18.7 74.8 M115.36 74.8 C78.07 73.37, 40.62 75.14, 18.7 74.8 M18.7 74.8 C6.04 73.71, -0.56 68.26, 0 56.1 M18.7 74.8 C6.74 73.07, -1.16 69.99, 0 56.1 M0 56.1 C-0.59 40.39, -2.25 27.92, 0 18.7 M0 56.1 C0.1 43.31, 0.86 32.6, 0 18.7 M0 18.7 C1.43 6.99, 6.33 1.13, 18.7 0 M0 18.7 C-0.3 6.1, 7.23 0.93, 18.7 0" stroke="#1e1e1e" stroke-width="1" fill="none"></path></g><g transform="translate(1264.2283463719148 89.48428668686574) rotate(0 13.899993896484375 12.5)"><text x="13.899993896484375" y="0" font-family="Virgil, Segoe UI Emoji" font-size="20px" fill="#1e1e1e" text-anchor="middle" style="white-space: pre;" direction="ltr" dominant-baseline="text-before-edge">R2</text></g><g stroke-linecap="round"><g transform="translate(1142.7650590183991 144.5513361459216) rotate(0 0.0904522498597089 262.83528105662185)"><path d="M0.91 0.54 C0.78 88.13, -0.35 437.63, -0.73 525.13" stroke="#1e1e1e" stroke-width="1.5" fill="none" stroke-dasharray="8 9"></path></g></g><mask></mask><g stroke-linecap="round" transform="translate(1074.6615433933991 63.813054895921596) rotate(0 67.029296875 37.3984375)"><path d="M18.7 0 M18.7 0 C54.63 -1.3, 91.57 1.04, 115.36 0 M18.7 0 C55.72 -0.55, 92.64 0.44, 115.36 0 M115.36 0 C126.52 1.64, 135.94 5.39, 134.06 18.7 M115.36 0 C128.06 -0.14, 131.76 7.02, 134.06 18.7 M134.06 18.7 C135.99 31.4, 133.38 48.54, 134.06 56.1 M134.06 18.7 C134.38 32.31, 134.66 47.44, 134.06 56.1 M134.06 56.1 C132.26 68.89, 126.36 73.88, 115.36 74.8 M134.06 56.1 C133.4 69.32, 127.77 75.18, 115.36 74.8 M115.36 74.8 C78.98 75.46, 42.41 75.02, 18.7 74.8 M115.36 74.8 C78.52 74.12, 42.46 73.52, 18.7 74.8 M18.7 74.8 C5.22 76.03, 1.93 70.22, 0 56.1 M18.7 74.8 C7.79 74.47, -1 66.33, 0 56.1 M0 56.1 C0.07 42.15, -1.58 29.68, 0 18.7 M0 56.1 C-0.22 43.25, -0.4 29.21, 0 18.7 M0 18.7 C0.86 7.04, 7.04 0.29, 18.7 0 M0 18.7 C-1.93 5.98, 6.41 0.24, 18.7 0" stroke="#1e1e1e" stroke-width="1" fill="none"></path></g><g transform="translate(1102.880880856778 88.7114923959216) rotate(0 38.809959411621094 12.5)"><text x="38.809959411621094" y="0" font-family="Virgil, Segoe UI Emoji" font-size="20px" fill="#1e1e1e" text-anchor="middle" style="white-space: pre;" direction="ltr" dominant-baseline="text-before-edge">Dropbox</text></g><g stroke-linecap="round"><g transform="translate(352.24162151839914 191.86709918686574) rotate(0 214.31046169647948 -0.30339997055898493)"><path d="M0.45 0.94 C71.79 0.97, 355.76 0.59, 427.1 0.38 M-0.77 0.38 C71.04 0.03, 357.92 -1.62, 429.39 -1.54" stroke="#1e1e1e" stroke-width="1" fill="none"></path></g><g transform="translate(352.24162151839914 191.86709918686574) rotate(0 214.31046169647948 -0.30339997055898493)"><path d="M402.79 7.46 C408.07 7.39, 413.16 5.87, 430.89 -2.85 M401.33 8.74 C410.89 5.31, 423.43 0.99, 429.27 -0.57" stroke="#1e1e1e" stroke-width="1" fill="none"></path></g><g transform="translate(352.24162151839914 191.86709918686574) rotate(0 214.31046169647948 -0.30339997055898493)"><path d="M402.73 -13.06 C408.05 -8.6, 413.15 -5.59, 430.89 -2.85 M401.27 -11.78 C411.05 -7.37, 423.61 -3.85, 429.27 -0.57" stroke="#1e1e1e" stroke-width="1" fill="none"></path></g></g><mask></mask><g stroke-linecap="round"><g transform="translate(785.9525590183991 219.03506793686574) rotate(0 176.62846302576372 0.31177858325270336)"><path d="M-0.8 0.38 C58.13 0.18, 294.84 -0.38, 354.06 -0.29 M0.97 -0.46 C59.76 -0.57, 294.54 1.17, 353.42 1.09" stroke="#1e1e1e" stroke-width="1" fill="none"></path></g><g transform="translate(785.9525590183991 219.03506793686574) rotate(0 176.62846302576372 0.31177858325270336)"><path d="M28 -8.96 C17.44 -4.91, 9.92 -4.47, 0.84 2.26 M26.36 -9.6 C20.89 -7.33, 12.73 -3.66, -1.53 0.05" stroke="#1e1e1e" stroke-width="1" fill="none"></path></g><g transform="translate(785.9525590183991 219.03506793686574) rotate(0 176.62846302576372 0.31177858325270336)"><path d="M28.04 11.56 C17.31 8.69, 9.78 2.19, 0.84 2.26 M26.41 10.92 C20.91 7.9, 12.73 6.27, -1.53 0.05" stroke="#1e1e1e" stroke-width="1" fill="none"></path></g><g transform="translate(785.9525590183991 219.03506793686574) rotate(0 176.62846302576372 0.31177858325270336)"><path d="M325.83 12.23 C334.16 9.75, 345.68 3.27, 355.06 2.97 M324.2 11.6 C333.25 8.62, 339.63 7, 352.69 0.76" stroke="#1e1e1e" stroke-width="1" fill="none"></path></g><g transform="translate(785.9525590183991 219.03506793686574) rotate(0 176.62846302576372 0.31177858325270336)"><path d="M325.9 -8.29 C334.37 -3.84, 345.86 -3.39, 355.06 2.97 M324.27 -8.93 C333.32 -6.61, 339.68 -2.94, 352.69 0.76" stroke="#1e1e1e" stroke-width="1" fill="none"></path></g></g><mask></mask><g stroke-linecap="round"><g transform="translate(787.4834264357826 465.9623880401223) rotate(0 245.40211028181943 -0.3226015028933489)"><path d="M0.59 -0.29 C82.62 -0.21, 409.87 0.69, 491.37 0.9 M-0.56 -1.49 C81.47 -1.77, 408.87 -0.86, 490.97 -0.75" stroke="#1e1e1e" stroke-width="1" fill="none"></path></g><g transform="translate(787.4834264357826 465.9623880401223) rotate(0 245.40211028181943 -0.3226015028933489)"><path d="M28.32 -8.75 C23.76 -9.28, 17.33 -3.72, -0.25 -0.09 M29.59 -10.51 C20.29 -6.42, 11.38 -4.73, 1.36 0.49" stroke="#1e1e1e" stroke-width="1" fill="none"></path></g><g transform="translate(787.4834264357826 465.9623880401223) rotate(0 245.40211028181943 -0.3226015028933489)"><path d="M28.27 11.78 C23.66 6.46, 17.24 7.24, -0.25 -0.09 M29.54 10.01 C20.46 8.07, 11.57 3.72, 1.36 0.49" stroke="#1e1e1e" stroke-width="1" fill="none"></path></g><g transform="translate(787.4834264357826 465.9623880401223) rotate(0 245.40211028181943 -0.3226015028933489)"><path d="M462.27 11.19 C470.79 5.63, 477.51 6.44, 490.12 -0.55 M463.54 9.42 C471.03 7.33, 478.72 3.02, 491.73 0.03" stroke="#1e1e1e" stroke-width="1" fill="none"></path></g><g transform="translate(787.4834264357826 465.9623880401223) rotate(0 245.40211028181943 -0.3226015028933489)"><path d="M462.31 -9.33 C470.89 -10.11, 477.59 -4.52, 490.12 -0.55 M463.58 -11.1 C470.86 -7.16, 478.53 -5.43, 491.73 0.03" stroke="#1e1e1e" stroke-width="1" fill="none"></path></g></g><mask></mask><g transform="translate(429.0879676738308 161.06782507402295) rotate(0 87.29991149902344 12.5)"><text x="0" y="0" font-family="Virgil, Segoe UI Emoji" font-size="20px" fill="#1e1e1e" text-anchor="start" style="white-space: pre;" direction="ltr" dominant-baseline="text-before-edge">List files request</text></g><g transform="translate(838.5775590183991 189.72567991438973) rotate(0 120.89988708496094 12.5)"><text x="0" y="0" font-family="Virgil, Segoe UI Emoji" font-size="20px" fill="#1e1e1e" text-anchor="start" style="white-space: pre;" direction="ltr" dominant-baseline="text-before-edge">Generate pre-signed urls</text></g><g transform="translate(842.0291570266029 436.6889505401223) rotate(0 120.46989440917969 12.5)"><text x="0" y="0" font-family="Virgil, Segoe UI Emoji" font-size="20px" fill="#1e1e1e" text-anchor="start" style="white-space: pre;" direction="ltr" dominant-baseline="text-before-edge">Generate pre-signed url </text></g><g stroke-linecap="round"><g transform="translate(781.1175356977348 251.467329860694) rotate(0 -215.73445322805844 -0.6110564492120147)"><path d="M0.12 -0.07 C-72 0.08, -360 0.41, -431.59 0.41 M-1.27 -1.15 C-73.14 -1.33, -358.1 -1.9, -429.51 -1.49" stroke="#1e1e1e" stroke-width="1" fill="none"></path></g><g transform="translate(781.1175356977348 251.467329860694) rotate(0 -215.73445322805844 -0.6110564492120147)"><path d="M-401.45 -13.79 C-411.79 -6.14, -423.63 -3.89, -427.57 -2.95 M-401.03 -11.13 C-408.56 -9.35, -415.79 -5.6, -430.41 -1.33" stroke="#1e1e1e" stroke-width="1" fill="none"></path></g><g transform="translate(781.1175356977348 251.467329860694) rotate(0 -215.73445322805844 -0.6110564492120147)"><path d="M-401.43 6.73 C-411.68 6.3, -423.53 0.47, -427.57 -2.95 M-401 9.39 C-408.7 5.7, -415.94 3.98, -430.41 -1.33" stroke="#1e1e1e" stroke-width="1" fill="none"></path></g></g><mask></mask><g transform="translate(433.26142233777273 221.631392360694) rotate(0 144.9898681640625 12.5)"><text x="0" y="0" font-family="Virgil, Segoe UI Emoji" font-size="20px" fill="#1e1e1e" text-anchor="start" style="white-space: pre;" direction="ltr" dominant-baseline="text-before-edge">Respond with pre-signed URLs</text></g><g stroke-linecap="round"><g transform="translate(353.400856986059 310.1045811999991) rotate(0 394.1827734970395 0.015418191826483962)"><path d="M0.94 -0.03 C132.54 0.09, 657.27 1.23, 788.39 1.17 M-0.02 -1.1 C131.51 -1.31, 655.68 -0.64, 787.37 -0.34" stroke="#1e1e1e" stroke-width="1" fill="none"></path></g><g transform="translate(353.400856986059 310.1045811999991) rotate(0 394.1827734970395 0.015418191826483962)"><path d="M759.1 9.63 C766.71 6.15, 769.74 7.1, 788.93 0.26 M759.64 10.35 C768.55 6.44, 779.04 2.09, 787.08 -0.02" stroke="#1e1e1e" stroke-width="1" fill="none"></path></g><g transform="translate(353.400856986059 310.1045811999991) rotate(0 394.1827734970395 0.015418191826483962)"><path d="M759.14 -10.89 C766.81 -10.27, 769.83 -5.21, 788.93 0.26 M759.68 -10.18 C768.62 -6.57, 779.09 -3.42, 787.08 -0.02" stroke="#1e1e1e" stroke-width="1" fill="none"></path></g></g><mask></mask><g stroke-linecap="round"><g transform="translate(349.03918855393476 347.80448412920487) rotate(0 -44.50179516188305 30.953474047481677)"><path d="M-0.14 1.17 C-13.38 1.1, -65.21 -10.51, -78.47 -0.4 C-91.73 9.71, -92.47 51.48, -79.71 61.82 C-66.94 72.17, -14.82 61.94, -1.86 61.67 M-1.68 0.73 C-14.62 0.84, -63.16 -8.95, -76.21 0.93 C-89.27 10.8, -92.45 50.2, -79.99 59.97 C-67.52 69.74, -14.2 59.47, -1.43 59.53" stroke="#1e1e1e" stroke-width="1" fill="none"></path></g><g transform="translate(349.03918855393476 347.80448412920487) rotate(0 -44.50179516188305 30.953474047481677)"><path d="M-26.58 70.95 C-18.94 69.1, -6.45 63.3, -0.11 59.95 M-29.42 72.57 C-22.61 68.63, -15.45 66.23, -1.45 59.7" stroke="#1e1e1e" stroke-width="1" fill="none"></path></g><g transform="translate(349.03918855393476 347.80448412920487) rotate(0 -44.50179516188305 30.953474047481677)"><path d="M-28.51 50.52 C-20.14 56.41, -6.93 58.34, -0.11 59.95 M-31.36 52.14 C-23.96 53.25, -16.32 55.91, -1.45 59.7" stroke="#1e1e1e" stroke-width="1" fill="none"></path></g></g><mask></mask><g transform="translate(74.33753915583333 368.5329267153961) rotate(0 84.31993103027344 12.5)"><text x="0" y="0" font-family="Virgil, Segoe UI Emoji" font-size="20px" fill="#1e1e1e" text-anchor="start" style="white-space: pre;" direction="ltr" dominant-baseline="text-before-edge">User clicks a file</text></g><g transform="translate(637.682106986059 277.2989271976678) rotate(0 233.54977416992182 12.5)"><text x="0" y="0" font-family="Virgil, Segoe UI Emoji" font-size="20px" fill="#1e1e1e" text-anchor="start" style="white-space: pre;" direction="ltr" dominant-baseline="text-before-edge">Directly fetch thumbnails using pre-signed URLs</text></g><g stroke-linecap="round"><g transform="translate(356.88741049716816 546.1948481064078) rotate(0 458.4938675143017 0.0802555304019279)"><path d="M0.37 0.79 C153.19 0.53, 764.91 -0.59, 917.89 -0.63 M-0.9 0.16 C151.71 -0.04, 763.96 0.85, 917.07 0.58" stroke="#1e1e1e" stroke-width="1" fill="none"></path></g><g transform="translate(356.88741049716816 546.1948481064078) rotate(0 458.4938675143017 0.0802555304019279)"><path d="M890.19 11.25 C898.38 7.85, 911 1.22, 917.4 -0.88 M888.86 11.01 C896.75 8.99, 904.03 5.08, 917.02 -0.41" stroke="#1e1e1e" stroke-width="1" fill="none"></path></g><g transform="translate(356.88741049716816 546.1948481064078) rotate(0 458.4938675143017 0.0802555304019279)"><path d="M890.19 -9.27 C898.54 -4.93, 911.16 -3.83, 917.4 -0.88 M888.86 -9.51 C896.69 -6.31, 903.97 -5.01, 917.02 -0.41" stroke="#1e1e1e" stroke-width="1" fill="none"></path></g></g><mask></mask><g transform="translate(641.1686604971684 513.39290331149) rotate(0 232.19979858398432 12.5)"><text x="0" y="0" font-family="Virgil, Segoe UI Emoji" font-size="20px" fill="#1e1e1e" text-anchor="start" style="white-space: pre;" direction="ltr" dominant-baseline="text-before-edge">Directly fetch original file using pre-signed URL</text></g><g stroke-linecap="round" transform="translate(9.999999999999943 10) rotate(0 718.6718912523402 403.2985412363598)"><path d="M32 0 M32 0 C404.94 0.67, 778.29 0.76, 1405.34 0 M32 0 C382.01 5.77, 732.19 5.23, 1405.34 0 M1405.34 0 C1426.11 -0.3, 1437.78 9.16, 1437.34 32 M1405.34 0 C1425.51 1.42, 1439.57 12.57, 1437.34 32 M1437.34 32 C1436.14 305.64, 1437.1 577.93, 1437.34 774.6 M1437.34 32 C1437.73 260.8, 1437.7 489.27, 1437.34 774.6 M1437.34 774.6 C1437.44 797.06, 1426.42 806.48, 1405.34 806.6 M1437.34 774.6 C1438.34 796.86, 1427.6 806.93, 1405.34 806.6 M1405.34 806.6 C1108.9 807.67, 811.66 807.46, 32 806.6 M1405.34 806.6 C881.94 806.22, 358.32 806.15, 32 806.6 M32 806.6 C9.87 806.44, 0.8 797.44, 0 774.6 M32 806.6 C10.14 808.38, -0.77 795.86, 0 774.6 M0 774.6 C2.77 563.68, 2.86 352.81, 0 32 M0 774.6 C2.24 504.48, 2.68 233.79, 0 32 M0 32 C1.52 10.13, 9.7 -1.76, 32 0 M0 32 C-0.23 12.81, 11.06 1, 32 0" stroke="#1e1e1e" stroke-width="1" fill="none"></path></g><g transform="translate(590.5557012323704 746.5922207529129) rotate(0 180.46875 16.799999999999955)"><text x="0" y="0" font-family="Cascadia, Segoe UI Emoji" font-size="28px" fill="#1e1e1e" text-anchor="start" style="white-space: pre;" direction="ltr" dominant-baseline="text-before-edge">User Flow: View a File</text></g><g stroke-linecap="round"><g transform="translate(352.2479713026655 443.46244971312035) rotate(0 214.428651319528 0.010898259189161763)"><path d="M1.16 0.14 C72.45 0.15, 357.55 -0.31, 428.55 -0.45 M0.31 -0.83 C71.43 -0.61, 356.39 0.68, 427.93 0.85" stroke="#1e1e1e" stroke-width="1" fill="none"></path></g><g transform="translate(352.2479713026655 443.46244971312035) rotate(0 214.428651319528 0.010898259189161763)"><path d="M399.95 12.07 C409.32 5.7, 419.17 3.3, 427.6 0.84 M398.92 10.85 C410.75 7.38, 421.44 4.22, 428.89 1.29" stroke="#1e1e1e" stroke-width="1" fill="none"></path></g><g transform="translate(352.2479713026655 443.46244971312035) rotate(0 214.428651319528 0.010898259189161763)"><path d="M400.02 -8.45 C409.28 -7.31, 419.1 -2.21, 427.6 0.84 M398.99 -9.67 C410.6 -5.51, 421.25 -1.03, 428.89 1.29" stroke="#1e1e1e" stroke-width="1" fill="none"></path></g></g><mask></mask><g transform="translate(429.09431745809707 412.66317560027755) rotate(0 81.52992248535156 12.5)"><text x="0" y="0" font-family="Virgil, Segoe UI Emoji" font-size="20px" fill="#1e1e1e" text-anchor="start" style="white-space: pre;" direction="ltr" dominant-baseline="text-before-edge">View file request</text></g><g stroke-linecap="round"><g transform="translate(781.7402143229405 491.64112460590104) rotate(0 -215.48793421798217 -0.6909627694824394)"><path d="M0.22 -0.41 C-71.66 -0.46, -358.73 -1.06, -430.3 -0.82 M-1.12 -1.67 C-73.25 -1.54, -359.82 0.14, -431.2 0.29" stroke="#1e1e1e" stroke-width="1" fill="none"></path></g><g transform="translate(781.7402143229405 491.64112460590104) rotate(0 -215.48793421798217 -0.6909627694824394)"><path d="M-403.73 -9.93 C-415.27 -4.08, -422.99 -0.12, -429.7 0.3 M-403.77 -9.77 C-411.42 -8.06, -418.48 -3.39, -431.09 0.78" stroke="#1e1e1e" stroke-width="1" fill="none"></path></g><g transform="translate(781.7402143229405 491.64112460590104) rotate(0 -215.48793421798217 -0.6909627694824394)"><path d="M-403.65 10.59 C-415.12 8.56, -422.88 4.63, -429.7 0.3 M-403.68 10.75 C-411.21 6.8, -418.28 5.81, -431.09 0.78" stroke="#1e1e1e" stroke-width="1" fill="none"></path></g></g><mask></mask><g transform="translate(433.8841009629782 461.80518710590104) rotate(0 139.55987548828125 12.5)"><text x="0" y="0" font-family="Virgil, Segoe UI Emoji" font-size="20px" fill="#1e1e1e" text-anchor="start" style="white-space: pre;" direction="ltr" dominant-baseline="text-before-edge">Respond with pre-signed URL</text></g></svg>